<?xml version="1.0" encoding="UTF-8"?>
<!DOCTYPE svg PUBLIC "-//W3C//DTD SVG 1.1//EN" "http://www.w3.org/Graphics/SVG/1.1/DTD/svg11.dtd">
<!-- Creator: CorelDRAW -->
<svg xmlns="http://www.w3.org/2000/svg" xml:space="preserve" width="35.32mm" height="17.62mm" version="1.1" style="shape-rendering:geometricPrecision; text-rendering:geometricPrecision; image-rendering:optimizeQuality; fill-rule:evenodd; clip-rule:evenodd"
viewBox="0 0 2032 762"
 xmlns:xlink="http://www.w3.org/1999/xlink"
 xmlns:xodm="http://www.corel.com/coreldraw/odm/2003">
 <defs>
  <style type="text/css">
   <![CDATA[
    .str0 {stroke:white;stroke-width:7.62;stroke-miterlimit:22.9256}
    .fil1 {fill:white}
    .fil0 {fill:white;fill-rule:nonzero}
   ]]>
  </style>
 </defs>
 <g id="Capa_x0020_1">
  <metadata id="CorelCorpID_0Corel-Layer"/>

  <g id="_105553377184704">
   <path class="fil1" d="M340.05 228.63c17.17,14.57 56.72,62.2 74.98,78.56l223.43 -135.12 -0.79 -104.55 -297.62 161.11z"/>
   <path class="fil0" d="M911.59 269.54l187.51 0 0 53.26 -126.69 0 0 48.83 119.67 0 0 53.27 -119.67 0 0 53.26 133.7 0 0 53.27 -194.52 0 0 -261.89zm245.59 0l60.81 0 0 208.62 112.66 0 0 53.27 -173.47 0 0 -261.89zm343.43 63.99c-4.94,-5.92 -11.63,-10.29 -20.08,-13.13 -8.44,-2.84 -16.43,-4.25 -23.97,-4.25 -4.42,0 -8.97,0.49 -13.64,1.48 -4.68,0.98 -9.1,2.52 -13.26,4.62 -4.16,2.1 -7.53,4.87 -10.13,8.32 -2.6,3.45 -3.9,7.65 -3.9,12.58 0,7.89 3.12,13.93 9.35,18.12 6.24,4.2 14.1,7.77 23.59,10.73 9.48,2.96 19.68,5.92 30.6,8.88 10.91,2.96 21.11,7.15 30.6,12.58 9.49,5.42 17.35,12.7 23.58,21.82 6.24,9.12 9.36,21.33 9.36,36.62 0,14.55 -2.86,27.25 -8.58,38.1 -5.71,10.85 -13.45,19.85 -23.19,27 -9.75,7.16 -21.05,12.46 -33.92,15.91 -12.86,3.45 -26.44,5.18 -40.73,5.18 -17.93,0 -34.56,-2.59 -49.9,-7.77 -15.33,-5.18 -29.62,-13.56 -42.88,-25.15l43.27 -45.13c6.24,7.89 14.1,13.99 23.59,18.31 9.48,4.31 19.29,6.47 29.43,6.47 4.94,0 9.94,-0.55 15.01,-1.66 5.06,-1.11 9.61,-2.78 13.64,-5 4.03,-2.22 7.28,-5.05 9.74,-8.5 2.47,-3.46 3.71,-7.53 3.71,-12.21 0,-7.89 -3.19,-14.12 -9.55,-18.68 -6.37,-4.56 -14.36,-8.45 -23.98,-11.65 -9.61,-3.21 -20.01,-6.42 -31.18,-9.62 -11.18,-3.21 -21.57,-7.52 -31.19,-12.95 -9.61,-5.42 -17.6,-12.57 -23.97,-21.45 -6.37,-8.88 -9.55,-20.59 -9.55,-35.14 0,-14.06 2.92,-26.39 8.77,-36.99 5.85,-10.61 13.64,-19.48 23.39,-26.64 9.74,-7.15 20.98,-12.51 33.72,-16.09 12.73,-3.57 25.86,-5.36 39.37,-5.36 15.59,0 30.67,2.1 45.22,6.29 14.55,4.19 27.67,11.22 39.37,21.08l-41.71 43.28zm178.15 -63.99l50.28 0 120.07 261.89 -68.61 0 -23.78 -55.49 -107.2 0 -23 55.49 -67.05 0 119.29 -261.89zm23.39 76.2l-33.53 81.38 67.44 0 -33.91 -81.38z"/>
   <path class="fil0" d="M1386.33 625.32c-2.17,3.13 -5.06,5.65 -8.65,7.5 -3.61,1.88 -8.01,2.83 -13.25,2.86 -8.1,0.04 -14.57,-2.68 -19.39,-8.16 -4.84,-5.46 -7.25,-12.54 -7.28,-21.24 -0.03,-8.44 2.36,-15.42 7.19,-20.94 4.82,-5.54 11.33,-8.34 19.52,-8.38 4.75,-0.03 8.69,0.62 11.83,1.93 3.14,1.33 5.82,3.18 8.04,5.55l-5.58 4.94c-2.16,-2.26 -4.32,-3.89 -6.5,-4.87 -2.16,-0.97 -4.73,-1.45 -7.66,-1.43 -5.63,0.03 -10,2.14 -13.14,6.32 -3.14,4.2 -4.7,9.52 -4.68,15.98 0.02,6.68 1.71,12.38 5.09,17.08 3.37,4.68 7.65,7.02 12.82,6.99 4.42,-0.03 7.71,-0.72 9.87,-2.1 2.15,-1.36 4.23,-3.37 6.21,-6.01l5.56 3.98zm38.4 3.42c3,-0.01 5.64,-0.72 7.88,-2.11 2.24,-1.38 4.46,-3.87 6.7,-7.48 2.21,-3.59 3.31,-8.46 3.29,-14.62 -0.02,-5.39 -1.58,-10.27 -4.66,-14.66 -3.08,-4.4 -7.58,-6.59 -13.47,-6.55 -5.91,0.03 -10.47,2.17 -13.66,6.41 -3.21,4.23 -4.78,9.77 -4.76,16.59 0.02,5.84 1.19,10.36 3.5,13.59 2.32,3.22 4.64,5.5 6.98,6.84 2.34,1.34 5.08,2.01 8.2,1.99zm0.39 6.69c-9.21,0.05 -16.18,-2.68 -20.91,-8.16 -4.72,-5.5 -7.09,-12.8 -7.12,-21.91 -0.03,-8.15 2.45,-14.97 7.48,-20.45 5.02,-5.49 11.72,-8.25 20.09,-8.3 8.56,-0.04 15.17,2.75 19.85,8.39 4.68,5.62 7.02,12.67 7.05,21.12 0.03,8.01 -2.39,14.88 -7.26,20.63 -4.88,5.74 -11.27,8.64 -19.18,8.68zm34.29 -58.11l9.24 -0.06 12.01 44.13 11.75 -44.26 5.55 -0.03 12.83 43.96 11.21 -44.1 9.25 -0.05 -17.48 57.07 -6.03 0.03 -12.44 -44.82 -11.67 44.96 -6.03 0.03 -18.19 -56.86zm107.52 50.61c3,-0.02 5.64,-0.72 7.88,-2.11 2.24,-1.39 4.46,-3.87 6.7,-7.48 2.21,-3.59 3.31,-8.46 3.29,-14.62 -0.02,-5.39 -1.58,-10.27 -4.66,-14.66 -3.07,-4.41 -7.58,-6.59 -13.47,-6.56 -5.91,0.04 -10.47,2.17 -13.66,6.42 -3.2,4.23 -4.78,9.77 -4.76,16.59 0.02,5.84 1.19,10.36 3.5,13.59 2.32,3.22 4.65,5.5 6.98,6.84 2.34,1.34 5.08,2.01 8.2,1.99zm0.4 6.69c-9.22,0.05 -16.19,-2.68 -20.92,-8.16 -4.72,-5.5 -7.09,-12.8 -7.12,-21.91 -0.03,-8.15 2.45,-14.97 7.49,-20.45 5.01,-5.49 11.71,-8.25 20.08,-8.3 8.56,-0.05 15.18,2.75 19.85,8.39 4.68,5.62 7.03,12.67 7.05,21.12 0.03,8.01 -2.39,14.88 -7.26,20.63 -4.87,5.74 -11.27,8.63 -19.17,8.68zm48.74 -58.2c0.27,0.92 0.46,2.14 0.59,3.68 0.14,1.53 0.2,3.51 0.2,5.97 2.8,-3.26 6.06,-5.83 9.8,-7.76 3.74,-1.91 7.65,-2.89 11.73,-2.92 0.46,0 0.95,0.04 1.48,0.1 0.54,0.07 0.93,0.14 1.17,0.22l-1.81 8.7c-1.09,-0.29 -2.48,-0.4 -4.15,-0.39 -4.82,0.03 -8.83,1.09 -12.01,3.22 -3.16,2.14 -5.22,4.22 -6.12,6.27l0.13 39.88 -8.57 0.04 -0.17 -49.12c-0.08,-4.51 -0.21,-7.14 -0.36,-7.84l8.09 -0.05zm41.58 21.76l24.34 -22.14 10.45 -0.06 -23.65 20.92 24.91 36.05 -10.17 0.06 -19.89 -32.01 -5.97 4.98 0.09 27.17 -8.58 0.05 -0.28 -82.66 8.59 -0.05 0.16 47.69zm48.26 -22.27l8.59 -0.05 0.19 56.97 -8.59 0.05 -0.19 -56.97zm-0.94 -18.45c0,-1.28 0.48,-2.43 1.41,-3.51 0.94,-1.04 2.2,-1.59 3.76,-1.6 1.52,-0.01 2.75,0.53 3.66,1.56 0.93,1.07 1.4,2.21 1.4,3.49 0.01,1.44 -0.49,2.65 -1.5,3.61 -1.02,0.98 -2.19,1.48 -3.52,1.48 -1.4,0.01 -2.61,-0.47 -3.64,-1.44 -1.03,-0.95 -1.56,-2.15 -1.57,-3.59zm27.35 25.63c-0.01,-2.29 -0.18,-4.74 -0.53,-7.33l8 -0.05c0.34,1.55 0.54,3.37 0.67,5.49 2.58,-1.84 5.5,-3.38 8.81,-4.62 3.33,-1.23 6.85,-1.86 10.59,-1.88 6.12,-0.04 10.82,1.51 14.06,4.62 3.26,3.11 4.9,7.55 4.92,13.31l0.14 39.83 -8.6 0.05 -0.13 -38.46c-0.01,-3.87 -0.91,-6.92 -2.66,-9.18 -1.77,-2.26 -4.58,-3.38 -8.42,-3.36 -3.09,0.02 -6.27,0.52 -9.57,1.53 -3.29,1.01 -6.19,2.28 -8.68,3.85l0.15 45.79 -8.59 0.05 -0.16 -49.64zm85.88 25.26c2.25,-0.02 4.17,-0.39 5.74,-1.12 1.58,-0.73 2.87,-1.76 3.87,-3.12 1.01,-1.33 1.75,-2.94 2.19,-4.8 0.44,-1.87 0.68,-3.94 0.67,-6.23 -0.01,-1.73 -0.27,-3.38 -0.78,-4.99 -0.52,-1.6 -1.29,-2.98 -2.33,-4.18 -1.05,-1.18 -2.35,-2.12 -3.95,-2.83 -1.6,-0.72 -3.49,-1.06 -5.66,-1.05 -2.65,0.01 -4.85,0.44 -6.57,1.26 -1.75,0.84 -3.14,1.92 -4.18,3.28 -1.06,1.34 -1.8,2.85 -2.21,4.55 -0.45,1.67 -0.64,3.39 -0.64,5.12 0.01,1.75 0.29,3.46 0.86,5.16 0.56,1.69 1.42,3.19 2.57,4.52 1.14,1.33 2.57,2.4 4.3,3.22 1.73,0.81 3.77,1.22 6.12,1.21zm-12.6 21.64c-1.63,1.74 -2.88,3.47 -3.75,5.18 -0.88,1.74 -1.33,3.42 -1.32,5.04 0,2.14 0.47,3.91 1.43,5.28 0.95,1.38 2.16,2.48 3.65,3.28 1.48,0.8 3.16,1.34 5.01,1.66 1.84,0.3 3.71,0.45 5.56,0.44 1,-0.01 2.23,-0.07 3.65,-0.2 1.45,-0.14 2.94,-0.35 4.47,-0.65 1.55,-0.28 3.06,-0.66 4.57,-1.15 1.5,-0.48 2.85,-1.08 4.04,-1.79 1.18,-0.71 2.16,-1.54 2.9,-2.52 0.74,-0.98 1.11,-2.1 1.1,-3.36 0,-1.22 -0.39,-2.32 -1.17,-3.28 -0.79,-0.97 -1.84,-1.81 -3.12,-2.55 -1.3,-0.73 -2.81,-1.38 -4.57,-1.98 -1.76,-0.59 -4.77,-1.25 -9.01,-2.01 -2.82,-0.39 -5.03,-0.67 -6.61,-0.82 -1.57,-0.15 -2.97,-0.27 -4.15,-0.36 -1.21,-0.08 -2.11,-0.14 -2.68,-0.21zm38.39 -47.95c-1.44,-0.03 -2.78,0.04 -4.01,0.21 -1.23,0.19 -2.44,0.47 -3.64,0.82 0.91,1.35 1.69,2.85 2.33,4.56 0.64,1.71 0.95,3.68 0.96,5.97 0.01,3.45 -0.59,6.44 -1.83,8.96 -1.2,2.53 -2.86,4.61 -4.91,6.26 -2.05,1.63 -4.43,2.87 -7.12,3.67 -2.66,0.81 -5.47,1.22 -8.36,1.24 -2.47,0.02 -5.03,-0.28 -7.67,-0.86 -0.57,0.08 -1.31,0.28 -2.23,0.6 -0.91,0.32 -1.77,0.74 -2.62,1.27 -0.86,0.55 -1.6,1.14 -2.21,1.84 -0.61,0.7 -0.93,1.44 -0.92,2.25 0,0.91 0.64,1.63 1.92,2.15 1.26,0.51 2.93,0.95 4.99,1.32 2.09,0.35 5.75,0.87 11,1.54 5.55,0.85 9.64,1.61 12.27,2.32 2.62,0.72 4.99,1.67 7.05,2.85 2.06,1.19 3.74,2.64 5.03,4.38 1.26,1.71 1.9,3.86 1.91,6.4 0.01,2.43 -0.45,4.52 -1.38,6.27 -0.95,1.77 -2.21,3.29 -3.78,4.54 -1.58,1.25 -3.39,2.29 -5.45,3.09 -2.05,0.8 -4.24,1.43 -6.53,1.91 -2.27,0.46 -4.58,0.78 -6.91,0.96 -2.34,0.17 -4.57,0.26 -6.67,0.27 -3.34,0.02 -6.38,-0.23 -9.17,-0.79 -2.77,-0.55 -5.17,-1.39 -7.15,-2.57 -1.99,-1.16 -3.55,-2.64 -4.69,-4.46 -1.12,-1.79 -1.71,-3.95 -1.72,-6.46 0,-1.33 0.23,-2.66 0.73,-3.98 0.48,-1.31 1.15,-2.58 1.99,-3.77 0.85,-1.22 1.84,-2.31 2.93,-3.35 1.11,-1.01 2.27,-1.94 3.49,-2.76 -0.96,-0.46 -1.93,-0.92 -2.88,-1.44 -0.95,-0.5 -1.79,-1.07 -2.53,-1.71 -0.74,-0.66 -1.35,-1.42 -1.82,-2.26 -0.49,-0.86 -0.72,-1.87 -0.72,-3.04 -0.01,-1.26 0.38,-2.44 1.16,-3.48 0.77,-1.06 1.72,-2.03 2.87,-2.87 1.13,-0.84 2.33,-1.55 3.61,-2.14 1.25,-0.56 2.39,-0.96 3.36,-1.23 -3.05,-1.67 -5.37,-3.8 -6.93,-6.42 -1.57,-2.6 -2.36,-5.87 -2.38,-9.81 -0.01,-3.21 0.65,-6.06 1.97,-8.53 1.33,-2.49 3.04,-4.57 5.17,-6.24 2.13,-1.66 4.58,-2.93 7.34,-3.81 2.74,-0.88 5.54,-1.33 8.42,-1.34 2.49,-0.02 5,0.31 7.5,0.96 2.51,0.66 4.86,1.65 7.02,2.97 2.83,-1.08 5.58,-1.83 8.24,-2.26 2.65,-0.45 5.2,-0.66 7.57,-0.68l-0.94 6.76 -3.66 -0.08z"/>
   <path class="fil1" d="M140.55 150.67l-3.66 -1.07c35.5,61.37 314.75,420.14 417.87,564.26 30.79,-25.65 322.35,-255.75 330.37,-265.37 0.5,-0.6 -1.35,-110.6 0,-120.73 -14.25,9.27 -300.75,196.88 -329.88,212.24 -111.75,-108.4 -295.13,-281.46 -414.7,-389.33z"/>
   <polygon class="fil1" points="466.69,361.32 546.07,440.33 722.03,326.83 722.03,217.06 "/>
  </g>
 </g>
</svg>
