<?xml version="1.0" encoding="UTF-8"?>
<!DOCTYPE svg PUBLIC "-//W3C//DTD SVG 1.1//EN" "http://www.w3.org/Graphics/SVG/1.1/DTD/svg11.dtd">
<!-- Creator: CorelDRAW -->
<svg xmlns="http://www.w3.org/2000/svg" xml:space="preserve" width="35.32mm" height="20.62mm" version="1.1" style="shape-rendering:geometricPrecision; text-rendering:geometricPrecision; image-rendering:optimizeQuality; fill-rule:evenodd; clip-rule:evenodd"
viewBox="0 0 2032 762"
 xmlns:xlink="http://www.w3.org/1999/xlink"
 xmlns:xodm="http://www.corel.com/coreldraw/odm/2003">
 <defs>
  <style type="text/css">
   <![CDATA[
    .fil0 {fill:#201F1F}
    .fil1 {fill:#201F1F;fill-rule:nonzero}
   ]]>
  </style>
 </defs>
 <g id="Capa_x0020_1">
  <metadata id="CorelCorpID_0Corel-Layer"/>
  <g id="_105553379868416">
   <path class="fil0" d="M288 203.87c17.76,15.08 58.69,64.36 77.58,81.29l231.18 -139.81 -0.82 -108.18 -307.94 166.7z"/>
   <path class="fil1" d="M879.37 246.2l194.01 0 0 55.11 -131.09 0 0 50.52 123.83 0 0 55.12 -123.83 0 0 55.11 138.35 0 0 55.11 -201.27 0 0 -270.97zm254.11 0l62.92 0 0 215.86 116.56 0 0 55.11 -179.48 0 0 -270.97zm355.34 66.21c-5.11,-6.12 -12.03,-10.65 -20.77,-13.59 -8.74,-2.93 -17.01,-4.4 -24.81,-4.4 -4.57,0 -9.27,0.51 -14.11,1.53 -4.85,1.02 -9.42,2.62 -13.72,4.79 -4.3,2.17 -7.8,5.04 -10.49,8.61 -2.68,3.57 -4.03,7.91 -4.03,13.01 0,8.17 3.23,14.42 9.68,18.76 6.45,4.33 14.59,8.03 24.4,11.1 9.82,3.06 20.37,6.12 31.67,9.18 11.29,3.06 21.84,7.4 31.66,13.01 9.81,5.62 17.95,13.14 24.4,22.58 6.45,9.45 9.68,22.08 9.68,37.9 0,15.05 -2.96,28.19 -8.87,39.42 -5.92,11.22 -13.92,20.54 -24,27.94 -10.08,7.4 -21.78,12.88 -35.09,16.45 -13.31,3.58 -27.36,5.36 -42.15,5.36 -18.55,0 -35.76,-2.68 -51.63,-8.04 -15.86,-5.35 -30.65,-14.03 -44.37,-26.02l44.77 -46.69c6.46,8.16 14.59,14.48 24.41,18.94 9.81,4.47 19.96,6.7 30.45,6.7 5.11,0 10.28,-0.58 15.53,-1.72 5.24,-1.15 9.95,-2.87 14.11,-5.17 4.17,-2.3 7.53,-5.23 10.09,-8.8 2.55,-3.58 3.83,-7.79 3.83,-12.63 0,-8.17 -3.29,-14.61 -9.88,-19.33 -6.59,-4.72 -14.86,-8.74 -24.81,-12.06 -9.95,-3.32 -20.7,-6.63 -32.26,-9.95 -11.57,-3.32 -22.32,-7.78 -32.27,-13.39 -9.95,-5.62 -18.22,-13.02 -24.81,-22.2 -6.59,-9.19 -9.88,-21.31 -9.88,-36.36 0,-14.55 3.03,-27.3 9.08,-38.28 6.05,-10.97 14.11,-20.15 24.2,-27.55 10.08,-7.4 21.71,-12.95 34.89,-16.65 13.17,-3.7 26.75,-5.55 40.73,-5.55 16.14,0 31.73,2.17 46.79,6.51 15.06,4.33 28.64,11.6 40.74,21.81l-43.16 44.78zm184.33 -66.21l52.03 0 124.23 270.97 -70.99 0 -24.6 -57.41 -110.92 0 -23.8 57.41 -69.38 0 123.43 -270.97zm24.2 78.84l-34.69 84.2 69.78 0 -35.09 -84.2z"/>
   <path class="fil1" d="M1370.58 614.32c-2.24,3.24 -5.23,5.85 -8.95,7.77 -3.74,1.94 -8.29,2.91 -13.7,2.94 -8.4,0.05 -15.09,-2.76 -20.08,-8.43 -5,-5.66 -7.5,-12.98 -7.53,-21.98 -0.03,-8.74 2.45,-15.96 7.44,-21.67 4.99,-5.73 11.73,-8.62 20.2,-8.67 4.91,-0.03 8.99,0.64 12.24,2 3.25,1.38 6.02,3.28 8.31,5.75l-5.76 5.1c-2.24,-2.34 -4.47,-4.02 -6.72,-5.03 -2.25,-1.02 -4.9,-1.5 -7.94,-1.49 -5.82,0.04 -10.34,2.22 -13.59,6.55 -3.25,4.34 -4.87,9.84 -4.85,16.53 0.03,6.91 1.78,12.81 5.27,17.67 3.49,4.84 7.92,7.26 13.28,7.23 4.57,-0.03 7.96,-0.74 10.2,-2.17 2.23,-1.41 4.37,-3.49 6.42,-6.22l5.76 4.12zm39.72 3.54c3.12,-0.02 5.84,-0.74 8.16,-2.19 2.32,-1.43 4.61,-3.99 6.93,-7.73 2.29,-3.72 3.42,-8.76 3.4,-15.13 -0.01,-5.57 -1.63,-10.63 -4.81,-15.18 -3.19,-4.54 -7.84,-6.81 -13.95,-6.77 -6.11,0.03 -10.82,2.24 -14.13,6.63 -3.31,4.38 -4.94,10.11 -4.92,17.17 0.02,6.04 1.23,10.73 3.62,14.07 2.39,3.32 4.8,5.69 7.23,7.07 2.42,1.39 5.25,2.08 8.47,2.06zm0.41 6.93c-9.52,0.05 -16.74,-2.78 -21.63,-8.45 -4.88,-5.69 -7.35,-13.24 -7.38,-22.67 -0.03,-8.44 2.55,-15.49 7.75,-21.17 5.19,-5.67 12.13,-8.52 20.79,-8.57 8.85,-0.05 15.7,2.83 20.54,8.67 4.84,5.82 7.27,13.11 7.3,21.85 0.02,8.29 -2.49,15.4 -7.52,21.36 -5.05,5.93 -11.67,8.93 -19.85,8.98zm35.49 -60.14l9.56 -0.05 12.43 45.66 12.16 -45.8 5.74 -0.04 13.27 45.5 11.6 -45.64 9.56 -0.05 -18.08 59.05 -6.25 0.03 -12.87 -46.37 -12.05 46.51 -6.25 0.04 -18.82 -58.84zm111.24 52.37c3.11,-0.02 5.84,-0.74 8.16,-2.19 2.31,-1.43 4.61,-3.99 6.92,-7.73 2.29,-3.73 3.43,-8.76 3.41,-15.13 -0.02,-5.57 -1.63,-10.63 -4.81,-15.18 -3.19,-4.54 -7.84,-6.81 -13.95,-6.77 -6.11,0.03 -10.83,2.24 -14.13,6.64 -3.31,4.37 -4.95,10.1 -4.92,17.16 0.02,6.04 1.22,10.73 3.62,14.07 2.39,3.32 4.8,5.69 7.22,7.07 2.43,1.39 5.25,2.08 8.48,2.06zm0.41 6.93c-9.53,0.05 -16.74,-2.78 -21.64,-8.45 -4.88,-5.69 -7.34,-13.24 -7.37,-22.67 -0.03,-8.44 2.54,-15.49 7.75,-21.17 5.18,-5.67 12.12,-8.53 20.79,-8.57 8.85,-0.06 15.7,2.83 20.54,8.67 4.84,5.82 7.26,13.11 7.29,21.85 0.03,8.29 -2.48,15.4 -7.51,21.36 -5.05,5.93 -11.67,8.93 -19.85,8.98zm50.44 -60.22c0.28,0.94 0.47,2.21 0.61,3.79 0.14,1.58 0.21,3.63 0.21,6.19 2.89,-3.37 6.26,-6.04 10.14,-8.04 3.87,-1.97 7.92,-2.98 12.13,-3.01 0.48,0 0.99,0.03 1.53,0.1 0.56,0.08 0.96,0.15 1.21,0.22l-1.87 9.01c-1.13,-0.29 -2.55,-0.41 -4.28,-0.4 -5,0.03 -9.14,1.13 -12.44,3.33 -3.27,2.21 -5.4,4.37 -6.33,6.48l0.14 41.27 -8.88 0.05 -0.17 -50.83c-0.09,-4.67 -0.21,-7.39 -0.37,-8.12l8.37 -0.04zm43.03 22.52l25.18 -22.91 10.81 -0.07 -24.48 21.64 25.79 37.3 -10.53 0.06 -20.58 -33.12 -6.17 5.16 0.1 28.12 -8.9 0.05 -0.28 -85.54 8.89 -0.05 0.17 49.36zm49.93 -23.06l8.89 -0.05 0.2 58.95 -8.89 0.05 -0.2 -58.95zm-0.97 -19.09c0,-1.32 0.5,-2.52 1.45,-3.62 0.98,-1.09 2.28,-1.65 3.9,-1.66 1.57,-0.01 2.84,0.54 3.79,1.62 0.96,1.09 1.44,2.28 1.45,3.6 0,1.49 -0.51,2.74 -1.56,3.74 -1.06,1.01 -2.27,1.52 -3.65,1.53 -1.44,0.01 -2.69,-0.49 -3.75,-1.49 -1.08,-0.98 -1.62,-2.23 -1.63,-3.72zm28.29 26.52c-0.01,-2.36 -0.19,-4.9 -0.55,-7.58l8.28 -0.05c0.35,1.6 0.57,3.49 0.69,5.68 2.67,-1.91 5.7,-3.5 9.13,-4.78 3.43,-1.27 7.08,-1.92 10.94,-1.95 6.34,-0.03 11.2,1.56 14.55,4.78 3.38,3.23 5.08,7.82 5.1,13.78l0.14 41.21 -8.89 0.05 -0.13 -39.79c-0.02,-4.01 -0.95,-7.17 -2.76,-9.51 -1.84,-2.34 -4.74,-3.49 -8.71,-3.47 -3.19,0.02 -6.5,0.54 -9.91,1.58 -3.4,1.05 -6.41,2.37 -8.98,3.99l0.16 47.37 -8.89 0.05 -0.17 -51.36zm88.88 26.14c2.32,-0.02 4.3,-0.4 5.93,-1.16 1.63,-0.75 2.97,-1.82 4,-3.23 1.05,-1.38 1.81,-3.04 2.27,-4.96 0.45,-1.94 0.7,-4.09 0.69,-6.45 -0.01,-1.79 -0.28,-3.51 -0.81,-5.16 -0.54,-1.65 -1.33,-3.08 -2.41,-4.33 -1.08,-1.22 -2.43,-2.2 -4.08,-2.94 -1.66,-0.73 -3.62,-1.09 -5.86,-1.08 -2.75,0.02 -5.02,0.46 -6.8,1.31 -1.8,0.86 -3.24,1.99 -4.33,3.39 -1.09,1.39 -1.85,2.96 -2.29,4.71 -0.45,1.74 -0.66,3.51 -0.65,5.3 0,1.8 0.3,3.59 0.88,5.34 0.58,1.75 1.47,3.31 2.67,4.68 1.17,1.37 2.65,2.48 4.44,3.33 1.79,0.84 3.91,1.26 6.35,1.25zm-13.05 22.39c-1.68,1.8 -2.98,3.59 -3.88,5.37 -0.91,1.79 -1.37,3.53 -1.36,5.2 0,2.22 0.49,4.04 1.47,5.47 0.99,1.43 2.24,2.56 3.78,3.39 1.54,0.83 3.27,1.4 5.19,1.72 1.9,0.31 3.83,0.46 5.75,0.45 1.03,0 2.3,-0.07 3.78,-0.21 1.5,-0.13 3.03,-0.35 4.63,-0.66 1.59,-0.28 3.16,-0.68 4.72,-1.2 1.55,-0.49 2.95,-1.11 4.18,-1.84 1.22,-0.74 2.24,-1.6 3,-2.61 0.77,-1.01 1.15,-2.17 1.14,-3.47 0,-1.27 -0.41,-2.41 -1.22,-3.41 -0.81,-1 -1.88,-1.87 -3.21,-2.62 -1.35,-0.76 -2.93,-1.44 -4.73,-2.06 -1.83,-0.61 -4.95,-1.3 -9.33,-2.07 -2.92,-0.42 -5.2,-0.7 -6.84,-0.86 -1.63,-0.16 -3.07,-0.28 -4.3,-0.36 -1.25,-0.09 -2.17,-0.16 -2.77,-0.23zm39.73 -49.62c-1.5,-0.03 -2.88,0.06 -4.15,0.23 -1.28,0.19 -2.53,0.48 -3.78,0.84 0.95,1.39 1.76,2.95 2.42,4.72 0.66,1.77 0.99,3.81 1,6.18 0.01,3.58 -0.61,6.65 -1.89,9.27 -1.26,2.62 -2.96,4.77 -5.09,6.48 -2.13,1.69 -4.58,2.97 -7.36,3.8 -2.77,0.84 -5.67,1.26 -8.66,1.28 -2.55,0.01 -5.21,-0.29 -7.93,-0.89 -0.6,0.08 -1.37,0.29 -2.31,0.61 -0.94,0.34 -1.84,0.78 -2.72,1.32 -0.88,0.57 -1.65,1.18 -2.28,1.9 -0.63,0.73 -0.95,1.49 -0.95,2.33 0,0.95 0.66,1.69 1.98,2.23 1.31,0.53 3.04,0.98 5.17,1.36 2.16,0.36 5.94,0.9 11.38,1.6 5.75,0.88 9.97,1.67 12.7,2.4 2.71,0.75 5.15,1.72 7.29,2.94 2.14,1.24 3.87,2.74 5.2,4.54 1.31,1.78 1.97,3.99 1.98,6.62 0.01,2.51 -0.46,4.68 -1.43,6.49 -0.98,1.83 -2.28,3.4 -3.91,4.7 -1.63,1.29 -3.5,2.37 -5.63,3.2 -2.13,0.83 -4.4,1.48 -6.76,1.97 -2.36,0.48 -4.74,0.81 -7.16,0.99 -2.42,0.19 -4.72,0.27 -6.89,0.29 -3.46,0.02 -6.61,-0.25 -9.49,-0.83 -2.87,-0.56 -5.35,-1.44 -7.41,-2.66 -2.05,-1.19 -3.67,-2.73 -4.85,-4.61 -1.16,-1.85 -1.76,-4.08 -1.77,-6.67 0,-1.38 0.24,-2.76 0.75,-4.13 0.5,-1.36 1.19,-2.67 2.07,-3.9 0.88,-1.26 1.89,-2.4 3.02,-3.47 1.15,-1.05 2.35,-2 3.62,-2.85 -1,-0.48 -2,-0.96 -2.98,-1.49 -0.99,-0.52 -1.85,-1.11 -2.62,-1.77 -0.77,-0.69 -1.41,-1.47 -1.89,-2.34 -0.5,-0.89 -0.74,-1.93 -0.74,-3.14 -0.01,-1.31 0.39,-2.52 1.2,-3.61 0.8,-1.1 1.78,-2.1 2.96,-2.96 1.17,-0.88 2.42,-1.61 3.74,-2.22 1.3,-0.58 2.48,-1 3.47,-1.27 -3.15,-1.73 -5.54,-3.93 -7.16,-6.64 -1.63,-2.7 -2.44,-6.08 -2.46,-10.16 -0.01,-3.32 0.67,-6.27 2.03,-8.83 1.37,-2.57 3.15,-4.73 5.35,-6.45 2.21,-1.71 4.74,-3.03 7.6,-3.94 2.84,-0.91 5.74,-1.37 8.71,-1.39 2.58,-0.02 5.17,0.32 7.76,1 2.6,0.67 5.02,1.7 7.28,3.07 2.91,-1.12 5.75,-1.9 8.51,-2.34 2.75,-0.47 5.38,-0.69 7.84,-0.7l-0.98 6.99 -3.78 -0.09z"/>
   <path class="fil0" d="M81.59 123.21l-3.8 -1.12c36.73,63.5 325.68,434.72 432.37,583.84 31.86,-26.54 333.53,-264.62 341.83,-274.58 0.51,-0.61 -1.4,-114.43 0,-124.91 -14.75,9.59 -311.18,203.71 -341.32,219.6 -115.63,-112.16 -305.37,-291.22 -429.08,-402.83z"/>
   <polygon class="fil0" points="419.03,341.16 501.17,422.91 683.24,305.48 683.24,191.9 "/>
  </g>
 </g>
</svg>
