<?xml version="1.0" encoding="UTF-8"?>
<!DOCTYPE svg PUBLIC "-//W3C//DTD SVG 1.1//EN" "http://www.w3.org/Graphics/SVG/1.1/DTD/svg11.dtd">
<!-- Creator: CorelDRAW -->
<svg xmlns="http://www.w3.org/2000/svg" xml:space="preserve" width="20.32mm" height="7.62mm" version="1.1" style="shape-rendering:geometricPrecision; text-rendering:geometricPrecision; image-rendering:optimizeQuality; fill-rule:evenodd; clip-rule:evenodd"
viewBox="0 0 2032 762"
 xmlns:xlink="http://www.w3.org/1999/xlink"
 xmlns:xodm="http://www.corel.com/coreldraw/odm/2003">
 <defs>
  <style type="text/css">
   <![CDATA[
    .fil1 {fill:#201F1F}
    .fil0 {fill:#201F1F;fill-rule:nonzero}
   ]]>
  </style>
 </defs>
 <g id="Capa_x0020_1">
  <metadata id="CorelCorpID_0Corel-Layer"/>
  <g id="_105553378294080">
   <path class="fil0" d="M829.68 485.8l96.37 0 0 27.16 -65.12 0 0 24.9 61.51 0 0 27.16 -61.51 0 0 27.15 68.72 0 0 27.16 -99.97 0 0 -133.53zm126.22 0l31.25 0 0 106.37 57.91 0 0 27.16 -89.16 0 0 -133.53zm176.51 32.63c-2.54,-3.02 -5.98,-5.25 -10.32,-6.69 -4.34,-1.45 -8.45,-2.17 -12.32,-2.17 -2.27,0 -4.61,0.25 -7.01,0.75 -2.41,0.5 -4.68,1.29 -6.82,2.36 -2.13,1.07 -3.87,2.48 -5.2,4.24 -1.34,1.76 -2.01,3.9 -2.01,6.42 0,4.02 1.6,7.1 4.81,9.24 3.21,2.13 7.25,3.96 12.12,5.47 4.88,1.5 10.12,3.01 15.73,4.52 5.61,1.51 10.85,3.65 15.73,6.41 4.87,2.77 8.91,6.48 12.12,11.13 3.2,4.65 4.81,10.88 4.81,18.67 0,7.42 -1.47,13.9 -4.41,19.43 -2.94,5.53 -6.91,10.12 -11.92,13.77 -5.01,3.64 -10.82,6.35 -17.43,8.11 -6.61,1.76 -13.59,2.64 -20.94,2.64 -9.22,0 -17.76,-1.32 -25.64,-3.96 -7.88,-2.64 -15.23,-6.92 -22.04,-12.83l22.24 -23.01c3.2,4.03 7.24,7.14 12.12,9.34 4.87,2.2 9.91,3.3 15.12,3.3 2.54,0 5.11,-0.28 7.72,-0.85 2.6,-0.57 4.94,-1.41 7.01,-2.55 2.07,-1.13 3.74,-2.57 5.01,-4.33 1.27,-1.76 1.9,-3.84 1.9,-6.23 0,-4.02 -1.63,-7.2 -4.91,-9.52 -3.27,-2.33 -7.38,-4.31 -12.32,-5.94 -4.94,-1.64 -10.28,-3.27 -16.03,-4.91 -5.74,-1.63 -11.08,-3.83 -16.02,-6.6 -4.95,-2.76 -9.05,-6.41 -12.33,-10.94 -3.27,-4.52 -4.91,-10.49 -4.91,-17.91 0,-7.17 1.51,-13.46 4.51,-18.86 3.01,-5.41 7.02,-9.94 12.02,-13.58 5.01,-3.65 10.79,-6.38 17.33,-8.21 6.55,-1.82 13.29,-2.73 20.24,-2.73 8.01,0 15.76,1.07 23.24,3.21 7.48,2.13 14.22,5.72 20.24,10.75l-21.44 22.06zm91.56 -32.63l25.84 0 61.71 133.53 -35.26 0 -12.22 -28.29 -55.1 0 -11.82 28.29 -34.46 0 61.31 -133.53zm12.02 38.86l-17.23 41.49 34.66 0 -17.43 -41.49z"/>
   <path class="fil0" d="M938.57 704.72c-1.39,2.02 -3.25,3.64 -5.57,4.84 -2.32,1.21 -5.16,1.81 -8.53,1.83 -5.23,0.03 -9.4,-1.72 -12.51,-5.25 -3.11,-3.52 -4.67,-8.08 -4.68,-13.69 -0.02,-5.44 1.52,-9.94 4.63,-13.5 3.11,-3.57 7.3,-5.37 12.58,-5.4 3.06,-0.01 5.6,0.4 7.62,1.25 2.03,0.86 3.75,2.04 5.18,3.58l-3.59 3.17c-1.39,-1.45 -2.78,-2.5 -4.18,-3.13 -1.41,-0.63 -3.06,-0.93 -4.95,-0.92 -3.62,0.02 -6.44,1.38 -8.47,4.07 -2.02,2.71 -3.03,6.14 -3.01,10.3 0.01,4.31 1.1,7.98 3.28,11.01 2.17,3.01 4.93,4.52 8.27,4.5 2.84,-0.02 4.96,-0.46 6.36,-1.35 1.38,-0.88 2.72,-2.17 3.99,-3.87l3.58 2.56zm24.75 2.21c1.94,-0.02 3.64,-0.47 5.08,-1.37 1.45,-0.89 2.88,-2.49 4.32,-4.81 1.42,-2.32 2.13,-5.46 2.12,-9.43 -0.01,-3.47 -1.02,-6.62 -3,-9.45 -1.98,-2.83 -4.88,-4.24 -8.69,-4.22 -3.8,0.02 -6.74,1.4 -8.8,4.13 -2.06,2.73 -3.08,6.3 -3.06,10.7 0.01,3.76 0.76,6.68 2.25,8.76 1.49,2.07 2.99,3.54 4.5,4.4 1.51,0.87 3.27,1.3 5.28,1.29zm0.25 4.31c-5.93,0.03 -10.42,-1.73 -13.47,-5.26 -3.04,-3.54 -4.57,-8.25 -4.59,-14.12 -0.02,-5.26 1.58,-9.65 4.82,-13.19 3.23,-3.53 7.56,-5.31 12.95,-5.34 5.52,-0.03 9.78,1.77 12.8,5.41 3.01,3.62 4.52,8.16 4.54,13.6 0.02,5.17 -1.55,9.6 -4.68,13.31 -3.15,3.69 -7.27,5.56 -12.37,5.59zm22.11 -37.46l5.95 -0.03 7.74 28.44 7.58 -28.53 3.57 -0.02 8.27 28.34 7.23 -28.43 5.95 -0.03 -11.26 36.78 -3.89 0.02 -8.02 -28.88 -7.51 28.97 -3.89 0.02 -11.72 -36.65zm69.29 32.62c1.94,-0.01 3.63,-0.46 5.08,-1.36 1.44,-0.89 2.87,-2.49 4.31,-4.82 1.43,-2.32 2.14,-5.45 2.12,-9.42 -0.01,-3.47 -1.01,-6.62 -2.99,-9.45 -1.99,-2.84 -4.89,-4.25 -8.69,-4.22 -3.81,0.02 -6.74,1.39 -8.8,4.13 -2.06,2.73 -3.08,6.3 -3.07,10.69 0.02,3.76 0.77,6.68 2.26,8.76 1.49,2.07 2.99,3.55 4.5,4.41 1.51,0.86 3.27,1.29 5.28,1.28zm0.25 4.32c-5.93,0.03 -10.42,-1.73 -13.47,-5.26 -3.04,-3.55 -4.58,-8.25 -4.6,-14.12 -0.01,-5.26 1.59,-9.65 4.83,-13.19 3.23,-3.53 7.55,-5.31 12.95,-5.34 5.51,-0.03 9.78,1.76 12.79,5.4 3.02,3.63 4.53,8.17 4.55,13.61 0.01,5.17 -1.55,9.6 -4.69,13.3 -3.14,3.7 -7.26,5.57 -12.36,5.6zm31.42 -37.51c0.17,0.59 0.29,1.38 0.38,2.36 0.09,0.99 0.13,2.26 0.13,3.85 1.8,-2.09 3.9,-3.75 6.32,-5 2.41,-1.23 4.93,-1.86 7.55,-1.88 0.3,0 0.62,0.02 0.96,0.07 0.34,0.04 0.59,0.09 0.75,0.13l-1.17 5.62c-0.7,-0.19 -1.59,-0.26 -2.66,-0.26 -3.11,0.02 -5.69,0.71 -7.75,2.08 -2.04,1.38 -3.36,2.72 -3.94,4.04l0.08 25.7 -5.53 0.03 -0.1 -31.65c-0.06,-2.92 -0.14,-4.61 -0.23,-5.06l5.21 -0.03zm26.8 14.03l15.68 -14.28 6.74 -0.03 -15.25 13.47 16.06 23.24 -6.55 0.04 -12.82 -20.63 -3.85 3.21 0.06 17.51 -5.54 0.03 -0.17 -53.27 5.54 -0.03 0.1 30.74zm31.1 -14.36l5.54 -0.04 0.12 36.72 -5.54 0.03 -0.12 -36.71zm-0.6 -11.89c0,-0.83 0.31,-1.57 0.9,-2.26 0.61,-0.68 1.42,-1.03 2.43,-1.04 0.98,0 1.77,0.34 2.36,1.01 0.6,0.68 0.9,1.42 0.9,2.25 0,0.93 -0.32,1.71 -0.97,2.32 -0.66,0.63 -1.41,0.95 -2.27,0.96 -0.9,0 -1.68,-0.31 -2.34,-0.93 -0.67,-0.61 -1.01,-1.39 -1.01,-2.31zm17.62 16.51c-0.01,-1.47 -0.12,-3.05 -0.34,-4.72l5.15 -0.03c0.22,1 0.36,2.17 0.43,3.54 1.66,-1.19 3.55,-2.18 5.69,-2.98 2.14,-0.79 4.41,-1.2 6.81,-1.21 3.95,-0.02 6.98,0.97 9.07,2.98 2.1,2 3.16,4.86 3.17,8.57l0.09 25.67 -5.54 0.03 -0.08 -24.78c-0.01,-2.5 -0.59,-4.47 -1.72,-5.92 -1.14,-1.46 -2.95,-2.18 -5.43,-2.16 -1.98,0.01 -4.04,0.33 -6.17,0.98 -2.11,0.65 -3.99,1.48 -5.59,2.48l0.1 29.51 -5.54 0.03 -0.1 -31.99zm55.36 16.28c1.44,-0.01 2.67,-0.25 3.69,-0.72 1.01,-0.47 1.85,-1.13 2.49,-2.01 0.66,-0.86 1.13,-1.9 1.42,-3.09 0.28,-1.21 0.43,-2.55 0.43,-4.02 -0.01,-1.11 -0.18,-2.18 -0.51,-3.21 -0.33,-1.03 -0.83,-1.92 -1.5,-2.7 -0.67,-0.76 -1.51,-1.37 -2.54,-1.83 -1.03,-0.46 -2.25,-0.68 -3.65,-0.67 -1.71,0.01 -3.12,0.28 -4.23,0.81 -1.13,0.54 -2.02,1.24 -2.7,2.12 -0.68,0.86 -1.16,1.84 -1.43,2.93 -0.28,1.08 -0.41,2.18 -0.41,3.3 0.01,1.12 0.19,2.24 0.55,3.33 0.37,1.08 0.92,2.05 1.66,2.91 0.74,0.85 1.66,1.55 2.78,2.07 1.11,0.53 2.43,0.79 3.95,0.78zm-8.13 13.95c-1.05,1.12 -1.86,2.24 -2.42,3.34 -0.57,1.12 -0.85,2.2 -0.85,3.24 0.01,1.39 0.31,2.52 0.92,3.41 0.62,0.89 1.4,1.6 2.36,2.11 0.95,0.52 2.03,0.87 3.23,1.07 1.18,0.19 2.38,0.29 3.58,0.29 0.64,-0.01 1.43,-0.05 2.35,-0.13 0.94,-0.09 1.89,-0.22 2.88,-0.42 1,-0.18 1.98,-0.42 2.95,-0.74 0.96,-0.31 1.84,-0.7 2.6,-1.15 0.76,-0.46 1.4,-1 1.87,-1.63 0.48,-0.63 0.72,-1.35 0.71,-2.16 0,-0.79 -0.25,-1.5 -0.76,-2.12 -0.5,-0.62 -1.17,-1.17 -2,-1.64 -0.84,-0.47 -1.82,-0.89 -2.95,-1.28 -1.14,-0.38 -3.08,-0.81 -5.81,-1.29 -1.81,-0.26 -3.24,-0.43 -4.26,-0.53 -1.01,-0.1 -1.91,-0.18 -2.68,-0.23 -0.77,-0.05 -1.35,-0.1 -1.72,-0.14zm24.74 -30.91c-0.93,-0.01 -1.79,0.04 -2.58,0.15 -0.8,0.12 -1.58,0.3 -2.35,0.52 0.59,0.87 1.09,1.84 1.5,2.94 0.41,1.1 0.62,2.38 0.62,3.85 0.01,2.23 -0.38,4.14 -1.17,5.77 -0.79,1.63 -1.85,2.97 -3.17,4.04 -1.33,1.05 -2.85,1.85 -4.59,2.37 -1.72,0.52 -3.52,0.78 -5.39,0.79 -1.59,0.01 -3.24,-0.18 -4.94,-0.55 -0.37,0.05 -0.85,0.18 -1.44,0.38 -0.58,0.21 -1.14,0.48 -1.69,0.82 -0.55,0.35 -1.03,0.74 -1.42,1.18 -0.4,0.46 -0.6,0.94 -0.6,1.46 0.01,0.59 0.41,1.05 1.24,1.38 0.82,0.33 1.89,0.62 3.22,0.85 1.34,0.23 3.7,0.56 7.09,1 3.58,0.54 6.21,1.04 7.91,1.49 1.69,0.47 3.21,1.08 4.54,1.84 1.33,0.77 2.41,1.7 3.24,2.82 0.82,1.11 1.23,2.49 1.23,4.12 0.01,1.57 -0.29,2.92 -0.89,4.05 -0.61,1.14 -1.42,2.12 -2.43,2.92 -1.02,0.81 -2.19,1.48 -3.51,2 -1.33,0.51 -2.74,0.92 -4.21,1.23 -1.47,0.3 -2.95,0.5 -4.46,0.61 -1.51,0.12 -2.94,0.17 -4.29,0.18 -2.16,0.01 -4.12,-0.15 -5.92,-0.51 -1.78,-0.35 -3.32,-0.9 -4.61,-1.66 -1.28,-0.74 -2.29,-1.7 -3.02,-2.87 -0.72,-1.16 -1.1,-2.55 -1.1,-4.16 -0.01,-0.86 0.15,-1.72 0.47,-2.57 0.3,-0.85 0.73,-1.66 1.28,-2.43 0.55,-0.78 1.18,-1.49 1.88,-2.16 0.72,-0.65 1.47,-1.25 2.26,-1.77 -0.63,-0.3 -1.25,-0.6 -1.86,-0.93 -0.61,-0.33 -1.15,-0.69 -1.63,-1.11 -0.48,-0.42 -0.88,-0.91 -1.18,-1.45 -0.31,-0.56 -0.46,-1.21 -0.46,-1.96 0,-0.81 0.25,-1.57 0.75,-2.25 0.5,-0.68 1.11,-1.3 1.85,-1.84 0.72,-0.55 1.5,-1.01 2.32,-1.38 0.82,-0.37 1.55,-0.63 2.17,-0.79 -1.97,-1.08 -3.46,-2.45 -4.47,-4.14 -1.01,-1.68 -1.52,-3.79 -1.52,-6.33 -0.01,-2.07 0.41,-3.9 1.26,-5.5 0.85,-1.6 1.96,-2.94 3.33,-4.02 1.37,-1.06 2.95,-1.88 4.73,-2.45 1.77,-0.57 3.58,-0.86 5.43,-0.87 1.6,-0.01 3.22,0.21 4.84,0.63 1.61,0.42 3.12,1.06 4.52,1.91 1.82,-0.7 3.59,-1.18 5.31,-1.46 1.71,-0.29 3.35,-0.43 4.88,-0.43l-0.61 4.35 -2.36 -0.06z"/>
   <path class="fil1" d="M831.23 92.05l-2.36 -0.69c22.87,39.55 202.84,270.76 269.29,363.65 19.85,-16.53 207.74,-164.82 212.92,-171.03 0.32,-0.38 -0.88,-71.27 0,-77.8 -9.19,5.97 -193.83,126.88 -212.6,136.78 -72.02,-69.86 -190.2,-181.39 -267.25,-250.91z"/>
   <path class="fil1" d="M959.79 142.29c11.07,9.4 36.56,40.09 48.32,50.63l144 -87.07 -0.51 -67.38 -191.81 103.82z"/>
   <polygon class="fil1" points="1041.41,227.81 1092.57,278.73 1205.97,205.58 1205.97,134.84 "/>
  </g>
 </g>
</svg>
