<?xml version="1.0" encoding="UTF-8"?>
<!DOCTYPE svg PUBLIC "-//W3C//DTD SVG 1.1//EN" "http://www.w3.org/Graphics/SVG/1.1/DTD/svg11.dtd">
<!-- Creator: CorelDRAW -->
<svg xmlns="http://www.w3.org/2000/svg" xml:space="preserve" width="20.32mm" height="7.62mm" version="1.1" style="shape-rendering:geometricPrecision; text-rendering:geometricPrecision; image-rendering:optimizeQuality; fill-rule:evenodd; clip-rule:evenodd"
viewBox="0 0 2032 762"
 xmlns:xlink="http://www.w3.org/1999/xlink"
 xmlns:xodm="http://www.corel.com/coreldraw/odm/2003">
 <defs>
  <style type="text/css">
   <![CDATA[
    .str0 {stroke:white;stroke-width:7.62;stroke-miterlimit:22.9256}
    .fil1 {fill:white}
    .fil0 {fill:white;fill-rule:nonzero}
   ]]>
  </style>
 </defs>
 <g id="Capa_x0020_1">
  <metadata id="CorelCorpID_0Corel-Layer"/>
  <g id="_105553372308128">
   <path class="fil0" d="M810.44 488.53l97.64 0 0 27.52 -65.97 0 0 25.22 62.32 0 0 27.52 -62.32 0 0 27.51 69.63 0 0 27.52 -101.3 0 0 -135.29zm127.89 0l31.67 0 0 107.77 58.66 0 0 27.52 -90.33 0 0 -135.29zm178.84 33.06c-2.57,-3.06 -6.06,-5.32 -10.46,-6.78 -4.4,-1.47 -8.56,-2.2 -12.48,-2.2 -2.3,0 -4.67,0.25 -7.11,0.76 -2.43,0.51 -4.73,1.31 -6.9,2.39 -2.16,1.08 -3.92,2.52 -5.28,4.3 -1.35,1.78 -2.03,3.95 -2.03,6.5 0,4.07 1.63,7.2 4.88,9.36 3.24,2.17 7.34,4.01 12.28,5.54 4.94,1.53 10.25,3.06 15.93,4.59 5.69,1.53 11,3.69 15.94,6.5 4.94,2.8 9.03,6.56 12.28,11.27 3.25,4.71 4.87,11.02 4.87,18.92 0,7.51 -1.49,14.07 -4.47,19.68 -2.97,5.6 -7,10.25 -12.07,13.95 -5.08,3.69 -10.97,6.43 -17.66,8.22 -6.7,1.78 -13.77,2.67 -21.22,2.67 -9.33,0 -18,-1.34 -25.98,-4.01 -7.98,-2.68 -15.43,-7.01 -22.33,-13l22.53 -23.31c3.25,4.08 7.34,7.23 12.28,9.46 4.94,2.23 10.05,3.34 15.33,3.34 2.57,0 5.18,-0.28 7.82,-0.86 2.63,-0.57 5,-1.43 7.1,-2.58 2.1,-1.14 3.79,-2.61 5.07,-4.39 1.29,-1.78 1.93,-3.89 1.93,-6.31 0,-4.07 -1.65,-7.29 -4.97,-9.65 -3.32,-2.35 -7.48,-4.36 -12.48,-6.02 -5.01,-1.65 -10.42,-3.31 -16.24,-4.96 -5.82,-1.66 -11.24,-3.89 -16.24,-6.69 -5.01,-2.8 -9.17,-6.5 -12.49,-11.08 -3.31,-4.59 -4.97,-10.64 -4.97,-18.16 0,-7.26 1.52,-13.63 4.57,-19.11 3.04,-5.47 7.1,-10.06 12.18,-13.75 5.07,-3.7 10.92,-6.47 17.56,-8.32 6.63,-1.84 13.46,-2.77 20.5,-2.77 8.12,0 15.97,1.08 23.54,3.25 7.58,2.17 14.42,5.8 20.51,10.89l-21.72 22.36zm92.76 -33.06l26.19 0 62.52 135.29 -35.72 0 -12.39 -28.66 -55.82 0 -11.98 28.66 -34.91 0 62.11 -135.29zm12.18 39.37l-17.45 42.03 35.11 0 -17.66 -42.03z"/>
   <path class="fil0" d="M920.77 710.34c-1.4,2.03 -3.29,3.69 -5.64,4.89 -2.36,1.23 -5.23,1.85 -8.64,1.87 -5.31,0.03 -9.53,-1.74 -12.68,-5.33 -3.15,-3.57 -4.72,-8.18 -4.74,-13.86 -0.02,-5.51 1.54,-10.07 4.69,-13.68 3.15,-3.61 7.39,-5.45 12.74,-5.47 3.11,-0.02 5.68,0.41 7.73,1.27 2.04,0.86 3.79,2.06 5.24,3.61l-3.63 3.23c-1.41,-1.48 -2.83,-2.54 -4.24,-3.18 -1.42,-0.63 -3.09,-0.95 -5.01,-0.94 -3.68,0.02 -6.53,1.41 -8.58,4.13 -2.05,2.74 -3.06,6.22 -3.05,10.43 0.02,4.37 1.11,8.08 3.32,11.15 2.19,3.06 4.99,4.58 8.37,4.56 2.89,-0.02 5.03,-0.45 6.45,-1.36 1.4,-0.89 2.76,-2.19 4.04,-3.92l3.63 2.6zm25.08 2.23c1.96,-0.01 3.68,-0.47 5.14,-1.38 1.47,-0.9 2.91,-2.52 4.37,-4.88 1.45,-2.35 2.17,-5.52 2.16,-9.55 -0.01,-3.51 -1.03,-6.71 -3.04,-9.58 -2.01,-2.86 -4.95,-4.29 -8.81,-4.27 -3.85,0.02 -6.82,1.42 -8.91,4.19 -2.09,2.76 -3.12,6.38 -3.1,10.84 0.01,3.8 0.77,6.76 2.28,8.87 1.51,2.09 3.02,3.59 4.56,4.46 1.53,0.87 3.31,1.31 5.35,1.3zm0.25 4.36c-6.01,0.04 -10.56,-1.74 -13.65,-5.31 -3.07,-3.61 -4.63,-8.37 -4.65,-14.32 -0.02,-5.32 1.61,-9.78 4.89,-13.35 3.27,-3.58 7.65,-5.39 13.12,-5.41 5.59,-0.04 9.9,1.78 12.96,5.47 3.05,3.68 4.58,8.27 4.6,13.78 0.02,5.24 -1.57,9.73 -4.74,13.48 -3.19,3.75 -7.36,5.64 -12.53,5.66zm22.39 -37.94l6.04 -0.03 7.84 28.81 7.67 -28.9 3.62 -0.02 8.38 28.7 7.32 -28.79 6.04 -0.03 -11.42 37.26 -3.93 0.02 -8.12 -29.26 -7.61 29.35 -3.95 0.02 -11.88 -37.13zm70.21 33.05c1.96,-0.01 3.67,-0.47 5.13,-1.39 1.47,-0.9 2.92,-2.51 4.38,-4.87 1.45,-2.35 2.16,-5.53 2.15,-9.56 -0.01,-3.5 -1.03,-6.7 -3.04,-9.57 -2.01,-2.87 -4.95,-4.29 -8.8,-4.27 -3.86,0.03 -6.83,1.41 -8.92,4.2 -2.09,2.75 -3.11,6.36 -3.09,10.82 0.01,3.81 0.76,6.77 2.27,8.87 1.51,2.1 3.02,3.6 4.56,4.47 1.53,0.87 3.31,1.31 5.36,1.3zm0.25 4.37c-6.02,0.04 -10.57,-1.75 -13.66,-5.33 -3.07,-3.59 -4.63,-8.35 -4.64,-14.3 -0.02,-5.33 1.6,-9.78 4.88,-13.36 3.27,-3.58 7.65,-5.39 13.12,-5.42 5.59,-0.03 9.91,1.79 12.97,5.48 3.05,3.68 4.58,8.28 4.59,13.79 0.02,5.24 -1.56,9.72 -4.74,13.48 -3.18,3.74 -7.36,5.63 -12.52,5.66zm31.83 -38c0.17,0.6 0.29,1.4 0.38,2.4 0.09,1 0.13,2.29 0.14,3.9 1.82,-2.12 3.95,-3.81 6.39,-5.07 2.44,-1.25 5,-1.89 7.66,-1.91 0.3,0 0.62,0.03 0.96,0.08 0.36,0.04 0.62,0.08 0.77,0.13l-1.19 5.68c-0.7,-0.18 -1.6,-0.26 -2.69,-0.25 -3.16,0.01 -5.77,0.71 -7.85,2.1 -2.07,1.39 -3.41,2.76 -4,4.1l0.09 26.04 -5.61 0.02 -0.1 -32.07c-0.06,-2.95 -0.14,-4.66 -0.24,-5.12l5.29 -0.03zm27.14 14.21l15.89 -14.46 6.82 -0.04 -15.43 13.66 16.27 23.54 -6.64 0.04 -13 -20.9 -3.89 3.26 0.06 17.73 -5.61 0.03 -0.18 -53.97 5.61 -0.03 0.1 31.14zm31.52 -14.54l5.6 -0.03 0.12 37.19 -5.6 0.03 -0.12 -37.19zm-0.61 -12.05c0,-0.84 0.3,-1.59 0.91,-2.29 0.62,-0.69 1.44,-1.04 2.45,-1.05 1,0 1.8,0.35 2.39,1.02 0.61,0.69 0.93,1.44 0.93,2.28 0,0.94 -0.34,1.73 -0.99,2.36 -0.67,0.63 -1.43,0.96 -2.3,0.96 -0.91,0.01 -1.7,-0.31 -2.37,-0.93 -0.67,-0.63 -1.02,-1.41 -1.02,-2.35zm17.85 16.73c-0.01,-1.49 -0.13,-3.09 -0.35,-4.78l5.22 -0.03c0.22,1.02 0.37,2.2 0.44,3.58 1.69,-1.22 3.59,-2.21 5.76,-3.01 2.16,-0.81 4.46,-1.23 6.9,-1.24 4.01,-0.02 7.08,0.99 9.19,3.01 2.12,2.04 3.2,4.95 3.21,8.71l0.09 25.99 -5.61 0.04 -0.08 -25.11c-0.01,-2.53 -0.6,-4.53 -1.75,-5.99 -1.15,-1.47 -2.98,-2.21 -5.5,-2.2 -2,0.01 -4.09,0.34 -6.24,1 -2.15,0.66 -4.04,1.49 -5.66,2.51l0.09 29.9 -5.61 0.04 -0.1 -32.42zm56.08 16.49c1.47,-0.01 2.7,-0.24 3.74,-0.72 1.03,-0.48 1.87,-1.16 2.53,-2.05 0.66,-0.87 1.15,-1.91 1.42,-3.12 0.3,-1.24 0.45,-2.59 0.44,-4.08 0,-1.13 -0.18,-2.21 -0.51,-3.25 -0.34,-1.04 -0.84,-1.95 -1.51,-2.72 -0.69,-0.78 -1.53,-1.41 -2.59,-1.87 -1.04,-0.46 -2.27,-0.7 -3.7,-0.69 -1.73,0.01 -3.16,0.3 -4.28,0.84 -1.14,0.54 -2.05,1.25 -2.73,2.14 -0.69,0.88 -1.17,1.86 -1.45,2.96 -0.29,1.1 -0.42,2.23 -0.41,3.36 0,1.14 0.19,2.25 0.56,3.35 0.36,1.11 0.92,2.1 1.68,2.96 0.73,0.87 1.67,1.57 2.8,2.11 1.14,0.53 2.47,0.79 4.01,0.78zm-8.24 14.13c-1.06,1.14 -1.88,2.26 -2.44,3.39 -0.58,1.13 -0.87,2.23 -0.86,3.28 0,1.41 0.31,2.55 0.93,3.46 0.61,0.89 1.41,1.61 2.38,2.14 0.97,0.52 2.07,0.88 3.27,1.08 1.21,0.19 2.41,0.29 3.63,0.28 0.65,0 1.46,-0.04 2.39,-0.12 0.94,-0.1 1.92,-0.23 2.92,-0.42 1.01,-0.18 1.99,-0.43 2.98,-0.76 0.98,-0.31 1.85,-0.71 2.64,-1.17 0.77,-0.46 1.41,-1 1.89,-1.65 0.48,-0.63 0.73,-1.36 0.73,-2.18 -0.01,-0.8 -0.27,-1.52 -0.79,-2.15 -0.5,-0.63 -1.18,-1.19 -2.02,-1.65 -0.85,-0.48 -1.85,-0.91 -2.98,-1.31 -1.16,-0.38 -3.12,-0.82 -5.89,-1.3 -1.84,-0.26 -3.29,-0.44 -4.31,-0.55 -1.03,-0.09 -1.94,-0.16 -2.72,-0.23 -0.79,-0.05 -1.37,-0.09 -1.75,-0.14zm25.07 -31.31c-0.94,-0.01 -1.82,0.03 -2.62,0.16 -0.81,0.11 -1.59,0.29 -2.38,0.52 0.6,0.88 1.11,1.86 1.52,2.98 0.42,1.11 0.63,2.41 0.63,3.9 0,2.25 -0.38,4.19 -1.18,5.85 -0.8,1.64 -1.88,3.01 -3.22,4.08 -1.34,1.06 -2.88,1.88 -4.65,2.4 -1.74,0.53 -3.56,0.79 -5.45,0.8 -1.62,0.01 -3.29,-0.18 -5.01,-0.55 -0.37,0.06 -0.86,0.18 -1.45,0.38 -0.61,0.22 -1.17,0.49 -1.73,0.83 -0.55,0.37 -1.04,0.75 -1.43,1.2 -0.4,0.46 -0.61,0.96 -0.6,1.48 0,0.6 0.41,1.06 1.25,1.4 0.82,0.33 1.91,0.63 3.27,0.87 1.35,0.22 3.74,0.56 7.16,1 3.64,0.55 6.31,1.05 8.02,1.52 1.72,0.47 3.27,1.08 4.6,1.85 1.36,0.78 2.44,1.73 3.28,2.87 0.84,1.12 1.25,2.51 1.26,4.16 0,1.59 -0.29,2.97 -0.91,4.11 -0.61,1.15 -1.43,2.15 -2.46,2.96 -1.02,0.82 -2.22,1.5 -3.56,2.03 -1.34,0.51 -2.77,0.93 -4.26,1.24 -1.48,0.3 -2.99,0.51 -4.52,0.62 -1.53,0.12 -2.98,0.17 -4.34,0.17 -2.18,0.02 -4.18,-0.14 -5.99,-0.51 -1.82,-0.36 -3.38,-0.91 -4.69,-1.68 -1.29,-0.75 -2.31,-1.73 -3.06,-2.9 -0.72,-1.18 -1.11,-2.58 -1.11,-4.22 0,-0.87 0.15,-1.74 0.48,-2.6 0.31,-0.86 0.74,-1.69 1.29,-2.47 0.56,-0.78 1.2,-1.51 1.92,-2.18 0.71,-0.66 1.48,-1.27 2.28,-1.79 -0.64,-0.31 -1.27,-0.62 -1.88,-0.95 -0.62,-0.33 -1.18,-0.71 -1.66,-1.12 -0.48,-0.43 -0.88,-0.93 -1.18,-1.48 -0.33,-0.56 -0.47,-1.22 -0.48,-1.98 0,-0.82 0.26,-1.59 0.77,-2.28 0.49,-0.69 1.11,-1.32 1.86,-1.86 0.74,-0.56 1.53,-1.02 2.36,-1.4 0.82,-0.37 1.56,-0.63 2.19,-0.81 -1.99,-1.08 -3.5,-2.48 -4.52,-4.19 -1.02,-1.69 -1.54,-3.83 -1.55,-6.4 -0.01,-2.1 0.42,-3.96 1.28,-5.58 0.86,-1.62 2,-2.98 3.39,-4.07 1.37,-1.08 2.98,-1.91 4.79,-2.49 1.78,-0.57 3.61,-0.87 5.49,-0.88 1.63,-0.01 3.26,0.21 4.9,0.63 1.64,0.43 3.17,1.08 4.58,1.94 1.85,-0.7 3.63,-1.19 5.38,-1.48 1.73,-0.28 3.4,-0.43 4.95,-0.44l-0.62 4.42 -2.39 -0.06z"/>
   <path class="fil1" d="M812.02 89.59l-2.4 -0.7c23.18,40.07 205.52,274.33 272.85,368.44 20.11,-16.75 210.48,-167 215.72,-173.28 0.32,-0.39 -0.88,-72.21 0,-78.83 -9.31,6.05 -196.38,128.56 -215.4,138.59 -72.97,-70.79 -192.71,-183.79 -270.77,-254.22z"/>
   <path class="fil1 str0" d="M942.28 140.49c11.21,9.52 37.04,40.62 48.95,51.3l145.9 -88.22 -0.52 -68.27 -194.33 105.19z"/>
   <polygon class="fil1" points="1024.96,227.13 1076.8,278.72 1191.7,204.62 1191.7,132.94 "/>
  </g>
 </g>
</svg>
